<svg xmlns="http://www.w3.org/2000/svg" viewBox="0 0 32 32" shape-rendering="crispEdges">
  <rect width="32" height="32" fill="#0a0e17"/>
  <rect x="4" y="2" width="24" height="28" fill="#1a2744"/>
  <rect x="5" y="3" width="22" height="26" fill="#162032"/>
  <rect x="6" y="4" width="20" height="10" fill="#0a1628"/>
  <rect x="7" y="5" width="18" height="8" fill="#0d2137"/>
  <rect x="8" y="6" width="12" height="1" fill="#00d4aa" opacity="0.9"/>
  <rect x="8" y="8" width="16" height="2" fill="#00d4aa"/>
  <rect x="8" y="11" width="8" height="1" fill="#00d4aa" opacity="0.5"/>
  <rect x="6" y="16" width="4" height="3" fill="#1e3a5f"/>
  <rect x="11" y="16" width="4" height="3" fill="#1e3a5f"/>
  <rect x="16" y="16" width="4" height="3" fill="#1e3a5f"/>
  <rect x="21" y="16" width="5" height="3" fill="#c8851a"/>
  <rect x="6" y="20" width="4" height="3" fill="#1e3a5f"/>
  <rect x="11" y="20" width="4" height="3" fill="#1e3a5f"/>
  <rect x="16" y="20" width="4" height="3" fill="#1e3a5f"/>
  <rect x="21" y="20" width="5" height="3" fill="#c8851a"/>
  <rect x="6" y="24" width="4" height="3" fill="#8b1a1a"/>
  <rect x="11" y="24" width="4" height="3" fill="#1e3a5f"/>
  <rect x="16" y="24" width="4" height="3" fill="#1e3a5f"/>
  <rect x="21" y="24" width="5" height="3" fill="#1e3a5f"/>
</svg>
